<svg width="302" height="276" viewBox="0 0 302 276" fill="none" xmlns="http://www.w3.org/2000/svg">
<path opacity="0.3" d="M110.6 271.888C110.6 271.888 162.27 287.928 209.207 256.703C256.143 225.477 276.391 166.708 294.008 119.64C311.626 72.5057 295.586 26.0948 256.275 6.30777C216.898 -13.4793 193.89 19.2581 141.234 23.1366C88.5777 27.0152 73.7867 19.9155 32.4377 52.3242C-8.91138 84.7329 -11.015 157.044 27.7703 208.714C66.6213 260.384 110.6 271.888 110.6 271.888Z" fill="#EAF3EE"/>
<path opacity="0.8" d="M190.523 4.119C190.523 4.119 138.853 -11.921 91.9165 19.3044C44.9798 50.5299 24.7325 109.299 7.11482 156.368C-10.5029 203.502 5.53711 249.912 44.8483 269.7C84.2252 289.487 107.233 256.749 159.889 252.871C212.545 248.992 227.336 256.092 268.685 223.683C310.034 191.274 312.138 118.963 273.353 67.293C234.502 15.6231 190.523 4.119 190.523 4.119Z" fill="#EAF3EE"/>
<path d="M124.449 117.337H167.269C172.405 117.337 176.551 121.483 176.551 126.619V136.891" stroke="#54A075" stroke-width="4.64095" stroke-miterlimit="10" stroke-linecap="round" stroke-linejoin="round"/>
<path d="M134.226 107.56L124.449 117.337L134.226 127.114" stroke="#54A075" stroke-width="4.64095" stroke-miterlimit="10" stroke-linecap="round" stroke-linejoin="round"/>
<path d="M176.551 159.663H133.731C128.595 159.663 124.449 155.517 124.449 150.381V140.109" stroke="#54A075" stroke-width="4.64095" stroke-miterlimit="10" stroke-linecap="round" stroke-linejoin="round"/>
<path d="M166.775 169.439L176.552 159.663L166.775 149.885" stroke="#54A075" stroke-width="4.64095" stroke-miterlimit="10" stroke-linecap="round" stroke-linejoin="round"/>
</svg>
