<svg width="41" height="40" viewBox="0 0 41 40" fill="none" xmlns="http://www.w3.org/2000/svg">
<path d="M26.4615 21.4832L28.9865 35.6932C29.0148 35.8605 28.9913 36.0325 28.9192 36.1861C28.8471 36.3397 28.7298 36.4677 28.583 36.5529C28.4363 36.638 28.267 36.6763 28.0978 36.6627C27.9287 36.6491 27.7677 36.5841 27.6365 36.4765L21.6698 31.9982C21.3818 31.783 21.0319 31.6667 20.6723 31.6667C20.3128 31.6667 19.9629 31.783 19.6748 31.9982L13.6982 36.4749C13.567 36.5823 13.4063 36.6471 13.2373 36.6608C13.0684 36.6744 12.8993 36.6362 12.7526 36.5513C12.6059 36.4664 12.4886 36.3387 12.4164 36.1854C12.3441 36.0321 12.3203 35.8604 12.3482 35.6932L14.8715 21.4832M30.6665 13.3334C30.6665 18.8562 26.1894 23.3334 20.6665 23.3334C15.1437 23.3334 10.6665 18.8562 10.6665 13.3334C10.6665 7.81053 15.1437 3.33337 20.6665 3.33337C26.1894 3.33337 30.6665 7.81053 30.6665 13.3334Z" stroke="#54A075" stroke-width="2" stroke-linecap="round" stroke-linejoin="round"/>
</svg>
