<svg width="41" height="40" viewBox="0 0 41 40" fill="none" xmlns="http://www.w3.org/2000/svg">
<path d="M7.78334 19.0333L4.88334 16.1333L2 19.0333" stroke="#54A075" stroke-width="1.5" stroke-linecap="round" stroke-linejoin="round"/>
<path d="M32.8833 20.9667L35.7833 23.8667L38.6833 20.9667" stroke="#54A075" stroke-width="1.5" stroke-linecap="round" stroke-linejoin="round"/>
<path d="M35.767 23.8667V20C35.767 11.4667 28.8504 4.56665 20.3337 4.56665C15.467 4.56665 11.117 6.83337 8.28369 10.35" stroke="#54A075" stroke-width="2" stroke-linecap="round" stroke-linejoin="round"/>
<path d="M4.90039 16.1333V20C4.90039 28.5333 11.8171 35.4333 20.3337 35.4333C25.2004 35.4333 29.5504 33.1666 32.3837 29.6499" stroke="#54A075" stroke-width="2" stroke-linecap="round" stroke-linejoin="round"/>
<path d="M18.2578 21.4706C18.2578 22.2736 18.8836 22.9307 19.645 22.9307H21.2094C21.8769 22.9307 22.4193 22.3571 22.4193 21.6583C22.4193 20.8969 22.0855 20.6258 21.5953 20.4485L19.0922 19.5724C18.5916 19.3951 18.2578 19.1239 18.2578 18.3625C18.2578 17.6637 18.8002 17.0901 19.4677 17.0901H21.0321C21.8039 17.1005 22.4297 17.7472 22.4297 18.5502" stroke="#54A075" stroke-width="1.5" stroke-linecap="round" stroke-linejoin="round"/>
<path d="M20.3438 22.983V23.7548" stroke="#54A075" stroke-width="1.5" stroke-linecap="round" stroke-linejoin="round"/>
<path d="M20.3438 16.2661V17.0796" stroke="#54A075" stroke-width="1.5" stroke-linecap="round" stroke-linejoin="round"/>
<path d="M20.3333 28.3333C24.9357 28.3333 28.6667 24.6023 28.6667 20C28.6667 15.3976 24.9357 11.6666 20.3333 11.6666C15.731 11.6666 12 15.3976 12 20C12 24.6023 15.731 28.3333 20.3333 28.3333Z" stroke="#54A075" stroke-width="2" stroke-linecap="round" stroke-linejoin="round"/>
</svg>
