<svg width="40" height="40" viewBox="0 0 40 40" fill="none" xmlns="http://www.w3.org/2000/svg">
<path d="M13.3335 19C13.3335 20.2833 14.3335 21.3333 15.5502 21.3333H18.0502C19.1168 21.3333 19.9835 20.4167 19.9835 19.3C19.9835 18.0833 19.4502 17.65 18.6668 17.3667L14.6668 15.9667C13.8668 15.6833 13.3335 15.25 13.3335 14.0333C13.3335 12.9167 14.2002 12 15.2668 12H17.7668C19.0002 12.0167 20.0002 13.05 20.0002 14.3333" stroke="#54A075" stroke-width="1.5" stroke-linecap="round" stroke-linejoin="round"/>
<path d="M16.6665 21.4166V22.65" stroke="#54A075" stroke-width="1.5" stroke-linecap="round" stroke-linejoin="round"/>
<path d="M16.6665 10.6833V11.9833" stroke="#54A075" stroke-width="1.5" stroke-linecap="round" stroke-linejoin="round"/>
<path d="M16.6502 29.9667C24.0048 29.9667 29.9668 24.0046 29.9668 16.65C29.9668 9.29545 24.0048 3.33337 16.6502 3.33337C9.29557 3.33337 3.3335 9.29545 3.3335 16.65C3.3335 24.0046 9.29557 29.9667 16.6502 29.9667Z" stroke="#54A075" stroke-width="2" stroke-linecap="round" stroke-linejoin="round"/>
<path d="M21.6333 33.1333C23.1333 35.25 25.5833 36.6333 28.3833 36.6333C32.9333 36.6333 36.6333 32.9333 36.6333 28.3833C36.6333 25.6166 35.2666 23.1666 33.1833 21.6666" stroke="#54A075" stroke-width="2" stroke-linecap="round" stroke-linejoin="round"/>
</svg>
