<svg width="16" height="16" viewBox="0 0 16 16" fill="none" xmlns="http://www.w3.org/2000/svg">
<path d="M1.66716 11.3333C1.20144 9.13551 1.20144 6.86449 1.66716 4.66667C1.72835 4.44347 1.84658 4.24005 2.01023 4.0764C2.17388 3.91276 2.3773 3.79453 2.60049 3.73333C6.17613 3.14097 9.82486 3.14097 13.4005 3.73333C13.6237 3.79453 13.8271 3.91276 13.9908 4.0764C14.1544 4.24005 14.2726 4.44347 14.3338 4.66667C14.7995 6.86449 14.7995 9.13551 14.3338 11.3333C14.2726 11.5565 14.1544 11.7599 13.9908 11.9236C13.8271 12.0872 13.6237 12.2055 13.4005 12.2667C9.82487 12.8591 6.17612 12.8591 2.60049 12.2667C2.3773 12.2055 2.17388 12.0872 2.01023 11.9236C1.84658 11.7599 1.72835 11.5565 1.66716 11.3333Z" stroke="#1F1F1F" stroke-linecap="round" stroke-linejoin="round"/>
<path d="M6.66716 10L10.0005 8L6.66716 6V10Z" stroke="#1F1F1F" stroke-linecap="round" stroke-linejoin="round"/>
</svg>
