<svg width="16" height="17" viewBox="0 0 16 17" fill="none" xmlns="http://www.w3.org/2000/svg">
<path d="M11.6668 4.84058H11.6735M4.66683 1.84058H11.3335C13.1744 1.84058 14.6668 3.33296 14.6668 5.17391V11.8406C14.6668 13.6815 13.1744 15.1739 11.3335 15.1739H4.66683C2.82588 15.1739 1.3335 13.6815 1.3335 11.8406V5.17391C1.3335 3.33296 2.82588 1.84058 4.66683 1.84058ZM10.6668 8.08728C10.7491 8.64211 10.6543 9.20876 10.396 9.70662C10.1376 10.2045 9.72889 10.6082 9.22788 10.8604C8.72687 11.1126 8.1591 11.2003 7.60532 11.1112C7.05155 11.0221 6.53997 10.7607 6.14336 10.3641C5.74674 9.96744 5.48529 9.45586 5.39618 8.90209C5.30707 8.34832 5.39484 7.78054 5.64701 7.27953C5.89919 6.77852 6.30292 6.36977 6.80079 6.11144C7.29865 5.85311 7.8653 5.75834 8.42013 5.84061C8.98608 5.92454 9.51003 6.18826 9.91459 6.59282C10.3192 6.99738 10.5829 7.52133 10.6668 8.08728Z" stroke="#54A075" stroke-linecap="round" stroke-linejoin="round"/>
</svg>
