<svg width="40" height="40" viewBox="0 0 40 40" fill="none" xmlns="http://www.w3.org/2000/svg">
<path d="M36.6667 14.1667C36.6667 20.15 31.8167 25 25.8333 25C25.55 25 25.25 24.9834 24.9667 24.9667C24.55 19.6834 20.3166 15.45 15.0333 15.0334C15.0166 14.75 15 14.45 15 14.1667C15 8.18337 19.85 3.33337 25.8333 3.33337C31.8167 3.33337 36.6667 8.18337 36.6667 14.1667Z" stroke="#54A075" stroke-width="2" stroke-linecap="round" stroke-linejoin="round"/>
<path d="M25.0002 25.8333C25.0002 31.8167 20.1502 36.6667 14.1668 36.6667C8.1835 36.6667 3.3335 31.8167 3.3335 25.8333C3.3335 19.85 8.1835 15 14.1668 15C14.4502 15 14.7501 15.0166 15.0335 15.0333C20.3168 15.45 24.5502 19.6834 24.9668 24.9667C24.9835 25.25 25.0002 25.55 25.0002 25.8333Z" stroke="#54A075" stroke-width="2" stroke-linecap="round" stroke-linejoin="round"/>
<path d="M9.31682 3.33337H5.00016C4.0835 3.33337 3.3335 4.08337 3.3335 5.00004V9.3167C3.3335 10.8 5.13348 11.55 6.18348 10.5L10.5001 6.18336C11.5335 5.13336 10.8002 3.33337 9.31682 3.33337Z" stroke="#54A075" stroke-width="2" stroke-linecap="round" stroke-linejoin="round"/>
<path d="M30.6835 36.6667H35.0002C35.9168 36.6667 36.6668 35.9167 36.6668 35V30.6834C36.6668 29.2 34.8669 28.45 33.8169 29.5L29.5002 33.8167C28.4669 34.8667 29.2002 36.6667 30.6835 36.6667Z" stroke="#54A075" stroke-width="2" stroke-linecap="round" stroke-linejoin="round"/>
</svg>
