<svg width="16" height="17" viewBox="0 0 16 17" fill="none" xmlns="http://www.w3.org/2000/svg">
<path d="M1.66716 11.8407C1.20144 9.64284 1.20144 7.37181 1.66716 5.17399C1.72835 4.9508 1.84658 4.74737 2.01023 4.58373C2.17388 4.42008 2.3773 4.30185 2.60049 4.24066C6.17613 3.6483 9.82486 3.6483 13.4005 4.24066C13.6237 4.30185 13.8271 4.42008 13.9908 4.58373C14.1544 4.74737 14.2726 4.9508 14.3338 5.17399C14.7995 7.37181 14.7995 9.64284 14.3338 11.8407C14.2726 12.0639 14.1544 12.2673 13.9908 12.4309C13.8271 12.5946 13.6237 12.7128 13.4005 12.774C9.82487 13.3665 6.17612 13.3665 2.60049 12.774C2.3773 12.7128 2.17388 12.5946 2.01023 12.4309C1.84658 12.2673 1.72835 12.0639 1.66716 11.8407Z" stroke="#54A075" stroke-linecap="round" stroke-linejoin="round"/>
<path d="M6.66716 10.5073L10.0005 8.50732L6.66716 6.50732V10.5073Z" stroke="#54A075" stroke-linecap="round" stroke-linejoin="round"/>
</svg>
